<svg width="17" height="17" viewBox="0 0 17 17" fill="none" xmlns="http://www.w3.org/2000/svg">
<path d="M3.95427 14.0501C4.98132 12.5498 6.67131 11.5749 8.75731 11.5749C10.8433 11.5749 12.5333 12.5498 13.5604 14.0501M3.95427 14.0501C5.23156 15.1855 6.91389 15.8752 8.75731 15.8752C10.6007 15.8752 12.2831 15.1855 13.5604 14.0501M3.95427 14.0501C2.46394 12.7254 1.52502 10.7938 1.52502 8.64293C1.52502 4.64865 4.76303 1.41064 8.75731 1.41064C12.7516 1.41064 15.9896 4.64865 15.9896 8.64293C15.9896 10.7938 15.0507 12.7254 13.5604 14.0501M11.2984 7.07919C11.2984 8.48259 10.1607 9.62026 8.75731 9.62026C7.35391 9.62026 6.21624 8.48259 6.21624 7.07919C6.21624 5.6758 7.35391 4.53812 8.75731 4.53812C10.1607 4.53812 11.2984 5.6758 11.2984 7.07919Z" stroke="black" stroke-width="1.5" stroke-linejoin="round"/>
</svg>
