<svg width="19" height="20" viewBox="0 0 19 20" fill="none" xmlns="http://www.w3.org/2000/svg">
<g clip-path="url(#clip0_233_5211)">
<path d="M5.34415 16.3374H7.02221C7.02221 16.3374 8.93773 17.078 10.2259 17.1394C13.0662 17.2748 15.3224 15.9518 17.1499 13.9395C17.5672 13.4799 17.5602 12.7861 17.1727 12.3011C16.6731 11.6759 15.7341 11.6253 15.1077 12.123C14.4176 12.6715 13.5015 13.2884 12.6287 13.5306C11.423 13.8653 10.2259 13.9316 10.2259 13.9316C16.6333 13.5306 14.1543 9.13475 5.34415 11.4804M11.0559 3.57522C10.7012 2.59941 9.76551 1.90247 8.66709 1.90247C7.26369 1.90247 6.12602 3.04014 6.12602 4.44354C6.12602 5.84693 7.26369 6.98461 8.66709 6.98461C8.92398 6.98461 9.17198 6.94649 9.40572 6.87559M11.0559 3.57522C10.0128 3.89162 9.25349 4.86078 9.25349 6.00728C9.25349 6.31225 9.30722 6.60467 9.40572 6.87559M11.0559 3.57522C11.2897 3.50432 11.5377 3.4662 11.7946 3.4662C13.198 3.4662 14.3356 4.60388 14.3356 6.00728C14.3356 7.41067 13.198 8.54835 11.7946 8.54835C10.6961 8.54835 9.76049 7.8514 9.40572 6.87559M3.78041 17.1489C2.91678 17.1489 2.21667 16.4488 2.21667 15.5852V12.0668C2.21667 11.2031 2.91678 10.503 3.78041 10.503C4.64404 10.503 5.34415 11.2031 5.34415 12.0668V15.5852C5.34415 16.4488 4.64404 17.1489 3.78041 17.1489Z" stroke="black" stroke-width="1.5" stroke-linecap="round" stroke-linejoin="round"/>
</g>
<defs>
<clipPath id="clip0_233_5211">
<rect width="18.7648" height="18.7648" fill="white" transform="translate(0.0665283 0.53418)"/>
</clipPath>
</defs>
</svg>
