<svg width="20" height="20" viewBox="0 0 20 20" fill="none" xmlns="http://www.w3.org/2000/svg">
<path d="M3.86792 5.96817C3.86792 5.09239 3.86792 4.6545 4.03836 4.32C4.18828 4.02577 4.4275 3.78654 4.72174 3.63662C5.05624 3.46619 5.49412 3.46619 6.3699 3.46619H8.95007V8.54833H3.86792V5.96817Z" stroke="black" stroke-width="1.5" stroke-linecap="round" stroke-linejoin="round"/>
<path d="M11.6866 3.46619H14.2668C15.1425 3.46619 15.5804 3.46619 15.9149 3.63662C16.2092 3.78654 16.4484 4.02577 16.5983 4.32C16.7688 4.6545 16.7688 5.09239 16.7688 5.96817V8.54833H11.6866V3.46619Z" stroke="black" stroke-width="1.5" stroke-linecap="round" stroke-linejoin="round"/>
<path d="M3.86792 11.2849H8.95007V16.367H6.3699C5.49412 16.367 5.05624 16.367 4.72174 16.1966C4.4275 16.0467 4.18828 15.8074 4.03836 15.5132C3.86792 15.1787 3.86792 14.7408 3.86792 13.865V11.2849Z" stroke="black" stroke-width="1.5" stroke-linecap="round" stroke-linejoin="round"/>
<path d="M11.6866 11.2849H16.7688V13.865C16.7688 14.7408 16.7688 15.1787 16.5983 15.5132C16.4484 15.8074 16.2092 16.0467 15.9149 16.1966C15.5804 16.367 15.1425 16.367 14.2668 16.367H11.6866V11.2849Z" stroke="black" stroke-width="1.5" stroke-linecap="round" stroke-linejoin="round"/>
</svg>
