<svg width="19" height="20" viewBox="0 0 19 20" fill="none" xmlns="http://www.w3.org/2000/svg">
<path d="M15.2814 10.3076V4.24428C15.2814 3.38065 14.5813 2.68054 13.7177 2.68054H4.73003C3.8664 2.68054 3.16629 3.38065 3.16629 4.24427L3.16626 15.5821C3.16626 16.4458 3.86637 17.1459 4.73 17.1459H9.61288M6.28994 12.0668H7.46274M6.28994 5.81183H12.1539M6.28994 8.93931H9.02648M15.3763 16.4562C14.4603 17.3722 12.9751 17.3722 12.0591 16.4562C11.1431 15.5401 11.1431 14.055 12.0591 13.139C12.9751 12.223 14.4603 12.223 15.3763 13.139C16.2923 14.055 16.2923 15.5401 15.3763 16.4562ZM15.3763 16.4562L16.8452 17.925" stroke="black" stroke-width="1.5" stroke-linecap="round" stroke-linejoin="round"/>
</svg>
