<svg width="49" height="48" viewBox="0 0 49 48" fill="none" xmlns="http://www.w3.org/2000/svg">
<path fill-rule="evenodd" clip-rule="evenodd" d="M16.0247 4.19995H32.9755C34.5916 4.19993 35.9133 4.19991 36.9875 4.28768C38.0993 4.37852 39.1035 4.57228 40.0412 5.0501C41.5089 5.79791 42.7021 6.99116 43.45 8.45883C43.9278 9.3966 44.1215 10.4008 44.2124 11.5126C44.3001 12.5867 44.3001 13.9084 44.3001 15.5245V26.4754C44.3001 28.0915 44.3001 29.4132 44.2124 30.4873C44.1215 31.5991 43.9278 32.6033 43.45 33.5411C42.7021 35.0087 41.5089 36.202 40.0412 36.9498C39.1035 37.4276 38.0993 37.6214 36.9875 37.7122C35.9133 37.8 34.5916 37.8 32.9755 37.8H27.8676C26.5474 37.8 26.1369 37.8084 25.7604 37.8857C25.3897 37.9618 25.031 38.0876 24.694 38.2598C24.3518 38.4346 24.0259 38.6844 22.995 39.5092L18.1721 43.3675C17.8015 43.6641 17.4337 43.9584 17.1123 44.1709C16.8038 44.3749 16.2352 44.7185 15.5031 44.7193C14.6504 44.7202 13.8437 44.3325 13.3118 43.6661C12.8551 43.094 12.7682 42.4353 12.7348 42.0669C12.6999 41.6833 12.7 41.2122 12.7001 40.7376L12.7001 37.7891C11.8405 37.768 11.1276 37.7074 10.4813 37.5342C7.7896 36.8129 5.68712 34.7105 4.96588 32.0187C4.69878 31.0219 4.6993 29.8667 4.70003 28.259C4.70006 28.1739 4.7001 28.0876 4.7001 28L4.7001 15.5245C4.70008 13.9084 4.70006 12.5867 4.78783 11.5126C4.87867 10.4008 5.07243 9.3966 5.55025 8.45883C6.29806 6.99116 7.49131 5.79791 8.95898 5.0501C9.89675 4.57228 10.9009 4.37852 12.0127 4.28768C13.0869 4.19991 14.4086 4.19993 16.0247 4.19995ZM12.3059 7.87572C11.4167 7.94837 10.939 8.08159 10.5933 8.25773C9.80306 8.66039 9.16054 9.30291 8.75788 10.0932C8.58174 10.4389 8.44852 10.9165 8.37587 11.8057C8.3015 12.716 8.3001 13.8901 8.3001 15.6V28C8.3001 29.9758 8.31556 30.6106 8.44321 31.087C8.83158 32.5364 9.96368 33.6685 11.4131 34.0568C11.8895 34.1845 12.5243 34.2 14.5001 34.2C15.4942 34.2 16.3001 35.0058 16.3001 36V40.2548L20.7461 36.6981C20.7888 36.6638 20.831 36.6301 20.8726 36.5968C21.725 35.9144 22.3477 35.4159 23.0562 35.0539C23.682 34.7342 24.3482 34.5005 25.0367 34.3592C25.8159 34.1993 26.6136 34.1995 27.7055 34.1999C27.7588 34.1999 27.8128 34.2 27.8676 34.2H32.9001C34.61 34.2 35.7841 34.1986 36.6943 34.1242C37.5835 34.0515 38.0612 33.9183 38.4069 33.7422C39.1971 33.3395 39.8397 32.697 40.2423 31.9067C40.4185 31.561 40.5517 31.0834 40.6243 30.1942C40.6987 29.284 40.7001 28.1098 40.7001 26.4V15.6C40.7001 13.8901 40.6987 12.716 40.6243 11.8057C40.5517 10.9165 40.4185 10.4389 40.2423 10.0932C39.8397 9.30291 39.1971 8.66039 38.4069 8.25773C38.0612 8.08159 37.5835 7.94837 36.6943 7.87572C35.7841 7.80135 34.61 7.79995 32.9001 7.79995H16.1001C14.3902 7.79995 13.2161 7.80135 12.3059 7.87572ZM12.7001 17C12.7001 16.0058 13.506 15.2 14.5001 15.2H24.5001C25.4942 15.2 26.3001 16.0058 26.3001 17C26.3001 17.9941 25.4942 18.8 24.5001 18.8H14.5001C13.506 18.8 12.7001 17.9941 12.7001 17ZM12.7001 24C12.7001 23.0058 13.506 22.2 14.5001 22.2H30.5001C31.4942 22.2 32.3001 23.0058 32.3001 24C32.3001 24.9941 31.4942 25.8 30.5001 25.8H14.5001C13.506 25.8 12.7001 24.9941 12.7001 24Z" fill="#272727"/>
</svg>
