<svg width="24" height="24" viewBox="0 0 24 24" fill="none" xmlns="http://www.w3.org/2000/svg">
<path fill-rule="evenodd" clip-rule="evenodd" d="M9.49994 2.22024C10.1802 2.07399 10.8741 2.00025 11.5699 2.00024C14.3518 1.98663 17.0031 3.1792 18.8385 5.26971C20.6739 7.36021 21.5134 10.1435 21.1399 12.9002C20.5399 17.5002 15.9999 21.2202 11.3599 21.2202H4.69994C4.13381 21.2205 3.60916 20.9233 3.31819 20.4377C3.02722 19.9521 3.0127 19.3493 3.27994 18.8502L3.54994 18.3302C3.81866 17.8294 3.79959 17.2232 3.49994 16.7402C1.82164 14.1018 1.53349 10.8114 2.72768 7.92145C3.92187 5.03152 6.44873 2.90429 9.49994 2.22024ZM11.2799 19.7102C15.3566 19.6459 18.8235 16.7185 19.5699 12.7102C19.909 10.3873 19.2106 8.03269 17.6599 6.27024C16.1239 4.51251 13.9042 3.50291 11.5699 3.50024C10.9787 3.50137 10.3891 3.56167 9.80993 3.68024C7.23508 4.25314 5.09972 6.04251 4.08517 8.47742C3.07063 10.9123 3.30366 13.6885 4.70993 15.9202C5.30823 16.8601 5.35032 18.0504 4.81993 19.0302L4.54993 19.5402C4.52795 19.5736 4.52795 19.6169 4.54993 19.6502C4.58993 19.7102 4.64993 19.7102 4.64993 19.7102H11.2799Z" fill="black"/>
</svg>
