<?xml version="1.0" encoding="UTF-8"?>
<!-- Generated by Pixelmator Pro 3.6.8 -->
<svg width="200" height="200" viewBox="0 0 200 200" xmlns="http://www.w3.org/2000/svg">
    <g id="Group">
        <path id="Path" fill="#ffffff" fill-rule="evenodd" stroke="none" d="M 67.561005 169.679993 L 67.561005 169.679993 C 67.490997 169.686005 67.420013 169.691986 67.348999 169.699005 C 67.276001 169.704987 67.203003 169.712006 67.130005 169.717987 C 61.971008 170.181 56.045013 170.713013 50.368988 169.592987 C 44.109985 168.359009 38.35199 165.199005 33.393005 158.859985 C 23.901001 146.72699 26.720001 129.309998 35.247009 118.828003 C 38.170013 114.894989 41.55899 111.847992 44.790009 109.388 C 39.605011 109.066986 34.809998 106.757996 30.979004 103.38501 C 25.903992 98.917999 22.200012 92.373993 20.707001 84.895996 C 19.213989 77.416992 20.122009 69.951996 23.09201 63.878998 C 26.06601 57.799011 31.320007 52.796021 38.451996 51.372009 C 45.140991 50.036987 51.514008 52.242981 56.471008 56.210999 C 56.266998 54.556 56.161987 52.86499 56.161987 51.151978 C 56.161987 42.817993 58.644012 35.018005 62.972992 29.148987 C 67.299011 23.281982 73.799011 19 81.563995 19 C 89.32901 19 95.828003 23.281982 100.154999 29.148987 C 103.372986 33.511993 105.571014 38.942993 106.487 44.867981 C 109.860992 39.036011 114.459015 34.324005 119.665009 31.289001 C 126.106995 27.53302 133.933014 26.14801 141.192993 29.307007 C 148.453003 32.466003 152.773987 39.13501 154.417999 46.40802 C 156.062012 53.686005 155.191986 62.033997 151.779999 69.877014 C 151.276001 71.033997 150.72699 72.158997 150.13501 73.247009 C 157.348999 70.752991 165.143005 71.181 171.553986 76.072998 C 183.377991 85.093994 181.803986 102.664001 172.895996 114.341003 C 165.533997 123.98999 152.966003 129.871002 142.152008 126.531006 C 144.096008 129.437012 146.019012 132.830994 147.580994 137.205994 C 152.708008 151.569 149.88501 170.960999 132.59201 178.67099 C 118.815002 184.812988 107.785004 179.451996 99.110992 175.234985 C 98.933014 175.148987 98.756012 175.062988 98.579987 174.977997 C 92.894989 172.217987 88.157013 169.980988 82.890015 169.372009 C 77.799011 168.78299 72.880005 169.203003 67.561005 169.679993 Z"/>
        <path id="path1" fill="#000000" fill-rule="evenodd" stroke="none" d="M 100.513 51.153015 C 100.513 65.354004 92.02301 76.865997 81.550995 76.865997 C 71.078003 76.865997 62.588013 65.354004 62.588013 51.153015 C 62.588013 36.951996 71.078003 25.440002 81.550995 25.440002 C 92.02301 25.440002 100.513 36.951996 100.513 51.153015 Z M 60.455994 106.265015 C 64.290009 103.105011 67.673004 99.686005 70.890991 96.43399 C 79.657013 87.575012 87.20401 79.947998 99.337006 82.127991 C 113.902008 84.746002 117.804993 94.036987 122.625 105.510986 C 124.10199 109.027008 125.665009 112.748993 127.647003 116.54599 C 129.574005 120.235992 131.674988 123.071014 133.727997 125.843994 C 136.617004 129.743988 139.414001 133.518005 141.502991 139.372009 C 145.973999 151.894989 143.035004 166.959015 129.957001 172.790009 C 118.931 177.705994 110.359009 173.544006 101.378998 169.184998 C 95.837006 166.494995 90.140015 163.730011 83.615997 162.975006 C 77.772003 162.299988 72.216003 162.796997 66.973999 163.265991 L 66.973999 163.265991 L 66.973999 163.265991 L 66.973999 163.265991 C 56.02301 164.246002 46.440002 165.104004 38.451996 154.893005 C 31.225006 145.656006 33.119995 131.529999 40.316986 122.785004 C 44.561005 117.02301 50.031006 113.414001 54.743988 110.303009 L 54.743988 110.303009 L 54.743988 110.303009 L 54.743988 110.303009 C 56.859985 108.906006 58.824005 107.609985 60.455994 106.265015 Z M 117.436005 83.882996 C 127.287994 88.169006 140.014008 80.748993 145.862 67.309021 C 151.709015 53.869019 148.463013 39.498993 138.610992 35.212006 C 128.759003 30.925995 116.032013 38.346985 110.184998 51.786987 C 104.337006 65.22699 107.584015 79.596985 117.436005 83.882996 Z M 167.763 110.434998 C 160.001007 120.609009 147.359009 124.011993 139.526001 118.036011 C 131.692993 112.05899 131.63501 98.96701 139.397003 88.792999 C 147.160004 78.618988 159.802002 75.21701 167.63501 81.192993 C 175.467987 87.169006 175.526001 100.260986 167.763 110.434998 Z M 48.690002 102.721008 C 58.182007 100.825989 63.864014 89.209015 61.381012 76.77301 C 58.89801 64.338013 49.19101 55.792999 39.699005 57.687988 C 30.208008 59.582001 24.526001 71.200012 27.007996 83.63501 C 29.490997 96.071014 39.197998 104.615997 48.690002 102.721008 Z"/>
    </g>
</svg>
