<svg width="54" height="54" viewBox="0 0 54 54" fill="none" xmlns="http://www.w3.org/2000/svg">
<rect width="54" height="54" rx="10" fill="#806DF2" fill-opacity="0.15"/>
<path d="M12.5 23.5L39.5 16V34L12.5 28V23.5Z" stroke="#BC7AF2" stroke-width="2" stroke-linecap="round" stroke-linejoin="round"/>
<path d="M25.4001 32.2C25.2425 32.7713 24.9739 33.3059 24.6097 33.7734C24.2455 34.2408 23.7928 34.632 23.2775 34.9245C22.7621 35.217 22.1942 35.4051 21.6061 35.4781C21.018 35.5512 20.4213 35.5076 19.8501 35.35C19.2788 35.1925 18.7442 34.9239 18.2768 34.5597C17.8093 34.1955 17.4181 33.7428 17.1256 33.2274C16.8331 32.7121 16.645 32.1441 16.572 31.5561C16.499 30.968 16.5425 30.3713 16.7001 29.8" stroke="#BC7AF2" stroke-width="2" stroke-linecap="round" stroke-linejoin="round"/>
</svg>
