<?xml version="1.0" encoding="UTF-8"?>
<svg xmlns="http://www.w3.org/2000/svg" xmlns:xlink="http://www.w3.org/1999/xlink" width="24px" height="24px" viewBox="0 0 24 24" version="1.1">
<defs>
<linearGradient id="linear0" gradientUnits="userSpaceOnUse" x1="-277.375" y1="406.601807" x2="-277.375" y2="407.572601" gradientTransform="matrix(24,0,0,-23.866681,6669.000586,9727.400391)">
<stop offset="0" style="stop-color:rgb(0%,38.431373%,87.843137%);stop-opacity:1;"/>
<stop offset="1" style="stop-color:rgb(9.803922%,68.627451%,100%);stop-opacity:1;"/>
</linearGradient>
</defs>
<g id="surface1">
<path style=" stroke:none;fill-rule:nonzero;fill:url(#linear0);" d="M 10.019531 23.878906 C 4.320312 22.859375 0 17.941406 0 12 C 0 5.398438 5.398438 0 12 0 C 18.601562 0 24 5.398438 24 12 C 24 17.941406 19.679688 22.859375 13.980469 23.878906 L 13.320312 23.339844 L 10.679688 23.339844 Z M 10.019531 23.878906 "/>
<path style=" stroke:none;fill-rule:nonzero;fill:rgb(100%,100%,100%);fill-opacity:1;" d="M 16.679688 15.359375 L 17.21875 12 L 14.039062 12 L 14.039062 9.660156 C 14.039062 8.699219 14.398438 7.980469 15.839844 7.980469 L 17.398438 7.980469 L 17.398438 4.921875 C 16.558594 4.800781 15.601562 4.679688 14.761719 4.679688 C 12 4.679688 10.078125 6.359375 10.078125 9.359375 L 10.078125 12 L 7.078125 12 L 7.078125 15.359375 L 10.078125 15.359375 L 10.078125 23.820312 C 10.738281 23.941406 11.398438 24 12.058594 24 C 12.71875 24 13.378906 23.941406 14.039062 23.820312 L 14.039062 15.359375 Z M 16.679688 15.359375 "/>
</g>
</svg>
