<?xml version="1.0" encoding="UTF-8"?>
<!-- Generated by Pixelmator Pro 3.6.8 -->
<svg width="33" height="33" viewBox="0 0 33 33" xmlns="http://www.w3.org/2000/svg">
    <g id="Group">
        <path id="Path" fill="#253b80" stroke="none" d="M 11.266 30.153999 L 11.789001 26.832001 L 10.624001 26.805 L 5.061 26.805 L 8.927 2.292 C 8.939 2.218 8.978001 2.149 9.035 2.1 C 9.092 2.051001 9.165 2.024 9.241 2.024 L 18.621 2.024 C 21.735001 2.024 23.884001 2.672001 25.006001 3.951 C 25.532 4.551001 25.867001 5.177999 26.028999 5.868 C 26.198999 6.591999 26.202 7.457001 26.035999 8.512001 L 26.024 8.589001 L 26.024 9.264999 L 26.549999 9.563 C 26.993 9.798 27.344999 10.067001 27.615 10.375 C 28.065001 10.888 28.356001 11.540001 28.479 12.313 C 28.606001 13.108 28.563999 14.054001 28.356001 15.125 C 28.115999 16.357 27.728001 17.43 27.204 18.308001 C 26.722 19.117001 26.108 19.788 25.379 20.308001 C 24.683001 20.802 23.856001 21.177 22.921 21.417 C 22.014999 21.653 20.982 21.771999 19.849001 21.771999 L 19.119001 21.771999 C 18.597 21.771999 18.09 21.959999 17.692001 22.297001 C 17.293001 22.641001 17.029001 23.111 16.948 23.625 L 16.893 23.924 L 15.969 29.778999 L 15.927 29.993999 C 15.916 30.062 15.897 30.096001 15.869 30.118999 C 15.844 30.139999 15.808 30.153999 15.773 30.153999 L 11.266 30.153999 Z"/>
        <path id="path1" fill="#179bd7" stroke="none" d="M 27.048 8.667 L 27.048 8.667 L 27.048 8.667 C 27.02 8.846001 26.988001 9.028999 26.952 9.216999 C 25.715 15.568001 21.483 17.761999 16.078001 17.761999 L 13.326 17.761999 C 12.665 17.761999 12.108 18.242001 12.005 18.893999 L 12.005 18.893999 L 12.005 18.893999 L 10.596001 27.83 L 10.197001 30.363001 C 10.13 30.791 10.46 31.177 10.892 31.177 L 15.773 31.177 C 16.351 31.177 16.842001 30.757 16.933001 30.187 L 16.981001 29.938999 L 17.9 24.107 L 17.959 23.787001 C 18.049 23.215 18.541 22.795 19.119001 22.795 L 19.849001 22.795 C 24.577999 22.795 28.280001 20.875 29.362 15.319 C 29.813999 12.998001 29.58 11.060001 28.384001 9.696999 C 28.021999 9.285999 27.573 8.945 27.048 8.667 Z"/>
        <path id="path2" fill="#222d65" stroke="none" d="M 25.754 8.151001 C 25.565001 8.096001 25.370001 8.046 25.17 8.000999 C 24.969 7.957001 24.763 7.917999 24.551001 7.883999 C 23.809 7.764 22.996 7.707001 22.125 7.707001 L 14.773 7.707001 C 14.592 7.707001 14.42 7.748001 14.266 7.822001 C 13.927 7.985001 13.675 8.306 13.614 8.698999 L 12.05 18.605 L 12.005 18.893999 C 12.108 18.242001 12.665 17.761999 13.326 17.761999 L 16.078001 17.761999 C 21.483 17.761999 25.715 15.567001 26.952 9.216999 C 26.989 9.028999 27.02 8.846001 27.048 8.667 C 26.735001 8.500999 26.396 8.359001 26.031 8.237999 C 25.941 8.208 25.848 8.179001 25.754 8.151001 Z"/>
        <path id="path3" fill="#253b80" stroke="none" d="M 13.614 8.698999 C 13.675 8.306 13.927 7.985001 14.266 7.823 C 14.421 7.749001 14.592 7.708 14.773 7.708 L 22.125 7.708 C 22.996 7.708 23.809 7.764999 24.551001 7.885 C 24.763 7.919001 24.969 7.958 25.17 8.001999 C 25.370001 8.047001 25.565001 8.097 25.754 8.152 C 25.848 8.18 25.941 8.209 26.032 8.237999 C 26.396999 8.359001 26.736 8.501999 27.049 8.667 C 27.417 6.32 27.046 4.722 25.777 3.275 C 24.378 1.681999 21.853001 1 18.622 1 L 9.242001 1 C 8.582 1 8.019 1.48 7.917 2.132999 L 4.01 26.898001 C 3.933 27.388 4.311 27.83 4.805 27.83 L 10.596001 27.83 L 12.05 18.605 L 13.614 8.698999 Z"/>
    </g>
</svg>
